<svg width="82" height="59" viewBox="0 0 82 59" fill="none" xmlns="http://www.w3.org/2000/svg">
<path fill-rule="evenodd" clip-rule="evenodd" d="M81.3009 36.1177C81.2894 35.3963 81.2776 34.6533 81.2776 33.8854C81.2776 15.6486 55.1434 4.17915 39.5474 4.17915C37.9412 4.17915 36.2696 4.13626 34.5621 4.09246C23.9035 3.81898 11.8491 3.5097 5.5974 13.374C3.43123 16.7919 1 27.4909 1 31.4099C1 36.3727 2.50018 40.1943 4.99732 43.5267C6.54575 45.593 8.38044 47.4061 10.4194 48.962C9.57267 51.4926 8.23521 54.3561 6.28741 56.3023C5.58261 57.0065 5.87625 58.3986 6.87092 58.3414C10.4462 58.1359 15.3874 56.8938 18.6016 53.4853C20.191 54.0951 21.8258 54.5914 23.4826 54.9731C29.4046 56.3375 36.0117 56.8724 42.7302 56.8724C52.3446 56.8724 69.1462 56.5106 76.6802 49.7995C81.4507 45.5501 81.3851 41.4183 81.3009 36.1177Z" fill="#212121"/>
<path fill-rule="evenodd" clip-rule="evenodd" d="M80.3009 32.1177C80.2894 31.3963 80.2776 30.6533 80.2776 29.8854C80.2776 11.6486 54.1434 0.179154 38.5474 0.179154C36.9412 0.179154 35.2696 0.136265 33.5621 0.0924559C22.9035 -0.181015 10.8491 -0.490299 4.5974 9.37395C2.43123 12.7919 0 23.4909 0 27.4099C0 32.3727 1.50018 36.1943 3.99732 39.5267C5.54575 41.593 7.38044 43.4061 9.41938 44.962C8.57267 47.4926 7.23521 50.3561 5.28741 52.3023C4.58261 53.0065 4.87625 54.3986 5.87092 54.3414C9.4462 54.1359 14.3874 52.8938 17.6016 49.4853C19.191 50.0951 20.8258 50.5914 22.4826 50.9731C28.4046 52.3375 35.0117 52.8724 41.7302 52.8724C51.3446 52.8724 68.1462 52.5106 75.6802 45.7995C80.4507 41.5501 80.3851 37.4183 80.3009 32.1177Z" fill="#DEDEDE"/>
<path d="M12.0234 23.0578L17.7289 9.55994H21.3092L27.0146 23.0578H23.0323L22.0559 20.6645H16.8865L15.9292 23.0578H12.0234ZM17.9778 17.7735H20.9837L19.4903 13.9635L17.9778 17.7735Z" fill="#212121"/>
<path d="M28.181 23.0578V9.0813H31.8188V23.0578H28.181Z" fill="#212121"/>
<path d="M37.9608 23.2684C35.7782 23.2684 34.4763 22.3111 34.4763 19.8413V15.6292H33.251V12.6999H34.4763V10.0769H38.114V12.6999H40.5264V15.6292H38.114V19.1329C38.114 19.8604 38.4395 20.1668 39.1096 20.1668C39.5882 20.1668 40.0477 20.0327 40.4881 19.8221V22.6749C39.8371 23.0386 38.9756 23.2684 37.9608 23.2684Z" fill="#212121"/>
<path d="M16.3695 40.8936V30.7463H12.3489V27.4915H24.1045V30.7463H20.0838V40.8936H16.3695Z" fill="#212121"/>
<path d="M28.8978 41.1425C25.643 41.1425 23.3455 38.979 23.3455 35.7625V35.7242C23.3455 32.6992 25.509 30.3059 28.5723 30.3059C32.1526 30.3059 33.7992 32.9289 33.7992 35.9731C33.7992 36.2028 33.7992 36.4709 33.78 36.7198H26.8492C27.1364 37.8494 27.9597 38.4238 29.0893 38.4238C29.9508 38.4238 30.6401 38.0983 31.3868 37.3707L33.3971 39.0364C32.4015 40.3001 30.9656 41.1425 28.8978 41.1425ZM26.7918 34.8626H30.3912C30.2572 33.7139 29.5871 32.9863 28.5915 32.9863C27.6342 32.9863 26.9832 33.733 26.7918 34.8626Z" fill="#212121"/>
<path d="M33.9561 40.8936L37.4406 35.6668L34.0135 30.5357H37.9384L39.4701 33.0821L41.0017 30.5357H44.8501L41.4421 35.6476L44.9266 40.8936H41.0209L39.4126 38.2323L37.7852 40.8936H33.9561Z" fill="#212121"/>
<path d="M50.0392 41.1042C47.8566 41.1042 46.5546 40.1469 46.5546 37.6771V33.465H45.3293V30.5357H46.5546V27.9127H50.1924V30.5357H52.6047V33.465H50.1924V36.9687C50.1924 37.6962 50.5178 38.0026 51.1879 38.0026C51.6666 38.0026 52.1261 37.8685 52.5664 37.6579V40.5107C51.9155 40.8744 51.0539 41.1042 50.0392 41.1042Z" fill="#212121"/>
<path d="M54.2448 40.8936V26.9171H57.8826V40.8936H54.2448Z" fill="#212121"/>
<path d="M62.9716 44.0144C61.6888 44.0144 60.5975 43.6506 59.6402 43.1145L60.7698 40.5681C61.3442 40.9127 61.9569 41.1233 62.3589 41.1233C62.7227 41.1233 62.9716 41.0276 63.2014 40.7021L59.1424 30.5357H62.9525L65.0202 36.7772L66.9731 30.5357H70.7065L66.9157 40.6447C66.0158 43.0571 65.0394 44.0144 62.9716 44.0144Z" fill="#212121"/>
</svg>
