<svg width="81" height="55" viewBox="0 0 81 55" fill="none" xmlns="http://www.w3.org/2000/svg">
<path fill-rule="evenodd" clip-rule="evenodd" d="M80.3009 32.1177C80.2894 31.3963 80.2776 30.6533 80.2776 29.8854C80.2776 11.6486 54.1434 0.179154 38.5474 0.179154C36.9412 0.179154 35.2696 0.136265 33.5621 0.0924559C22.9035 -0.181015 10.8491 -0.490299 4.5974 9.37395C2.43123 12.7919 0 23.4909 0 27.4099C0 32.3727 1.50018 36.1943 3.99732 39.5267C5.54575 41.593 7.38044 43.4061 9.41938 44.962C8.57267 47.4926 7.23521 50.3561 5.28741 52.3023C4.58261 53.0065 4.87625 54.3986 5.87092 54.3414C9.4462 54.1359 14.3874 52.8938 17.6016 49.4853C19.191 50.0951 20.8258 50.5914 22.4826 50.9731C28.4046 52.3375 35.0117 52.8724 41.7302 52.8724C51.3446 52.8724 68.1462 52.5106 75.6802 45.7995C80.4507 41.5501 80.3851 37.4183 80.3009 32.1177Z" fill="#212121"/>
<path d="M12.0234 23.0577L17.7289 9.55988H21.3092L27.0146 23.0577H23.0323L22.0559 20.6645H16.8865L15.9292 23.0577H12.0234ZM17.9778 17.7735H20.9837L19.4903 13.9634L17.9778 17.7735Z" fill="#DEDEDE"/>
<path d="M28.181 23.0577V9.08124H31.8188V23.0577H28.181Z" fill="#DEDEDE"/>
<path d="M37.9608 23.2683C35.7782 23.2683 34.4763 22.311 34.4763 19.8412V15.6291H33.251V12.6998H34.4763V10.0768H38.114V12.6998H40.5264V15.6291H38.114V19.1328C38.114 19.8604 38.4395 20.1667 39.1096 20.1667C39.5882 20.1667 40.0477 20.0327 40.4881 19.8221V22.6748C39.8371 23.0386 38.9756 23.2683 37.9608 23.2683Z" fill="#DEDEDE"/>
<path d="M16.3695 40.8935V30.7462H12.3489V27.4914H24.1045V30.7462H20.0838V40.8935H16.3695Z" fill="#DEDEDE"/>
<path d="M28.8978 41.1424C25.643 41.1424 23.3455 38.9789 23.3455 35.7624V35.7241C23.3455 32.6991 25.509 30.3059 28.5723 30.3059C32.1526 30.3059 33.7992 32.9288 33.7992 35.973C33.7992 36.2028 33.7992 36.4708 33.78 36.7197H26.8492C27.1364 37.8493 27.9597 38.4237 29.0893 38.4237C29.9508 38.4237 30.6401 38.0982 31.3868 37.3707L33.3971 39.0364C32.4015 40.3 30.9656 41.1424 28.8978 41.1424ZM26.7918 34.8626H30.3912C30.2572 33.7138 29.5871 32.9863 28.5915 32.9863C27.6342 32.9863 26.9832 33.733 26.7918 34.8626Z" fill="#DEDEDE"/>
<path d="M33.9561 40.8935L37.4406 35.6667L34.0135 30.5356H37.9384L39.4701 33.082L41.0017 30.5356H44.8501L41.4421 35.6476L44.9266 40.8935H41.0209L39.4126 38.2322L37.7852 40.8935H33.9561Z" fill="#DEDEDE"/>
<path d="M50.0392 41.1041C47.8566 41.1041 46.5546 40.1468 46.5546 37.677V33.4649H45.3293V30.5356H46.5546V27.9126H50.1924V30.5356H52.6047V33.4649H50.1924V36.9686C50.1924 37.6962 50.5178 38.0025 51.1879 38.0025C51.6666 38.0025 52.1261 37.8685 52.5664 37.6579V40.5106C51.9155 40.8744 51.0539 41.1041 50.0392 41.1041Z" fill="#DEDEDE"/>
<path d="M54.2448 40.8935V26.917H57.8826V40.8935H54.2448Z" fill="#DEDEDE"/>
<path d="M62.9716 44.0143C61.6888 44.0143 60.5975 43.6505 59.6402 43.1144L60.7698 40.568C61.3442 40.9127 61.9569 41.1233 62.3589 41.1233C62.7227 41.1233 62.9716 41.0275 63.2014 40.7021L59.1424 30.5356H62.9525L65.0202 36.7772L66.9731 30.5356H70.7065L66.9157 40.6446C66.0158 43.057 65.0394 44.0143 62.9716 44.0143Z" fill="#DEDEDE"/>
<path d="M12.0234 23.0577L17.7289 9.55988H21.3092L27.0146 23.0577H23.0323L22.0559 20.6645H16.8865L15.9292 23.0577H12.0234ZM17.9778 17.7735H20.9837L19.4903 13.9634L17.9778 17.7735Z" fill="#DEDEDE"/>
<path d="M28.181 23.0577V9.08124H31.8188V23.0577H28.181Z" fill="#DEDEDE"/>
<path d="M37.9608 23.2683C35.7782 23.2683 34.4763 22.311 34.4763 19.8412V15.6291H33.251V12.6998H34.4763V10.0768H38.114V12.6998H40.5264V15.6291H38.114V19.1328C38.114 19.8604 38.4395 20.1667 39.1096 20.1667C39.5882 20.1667 40.0477 20.0327 40.4881 19.8221V22.6748C39.8371 23.0386 38.9756 23.2683 37.9608 23.2683Z" fill="#DEDEDE"/>
<path d="M16.3695 40.8935V30.7462H12.3489V27.4914H24.1045V30.7462H20.0838V40.8935H16.3695Z" fill="#DEDEDE"/>
<path d="M28.8978 41.1424C25.643 41.1424 23.3455 38.9789 23.3455 35.7624V35.7241C23.3455 32.6991 25.509 30.3059 28.5723 30.3059C32.1526 30.3059 33.7992 32.9288 33.7992 35.973C33.7992 36.2028 33.7992 36.4708 33.78 36.7197H26.8492C27.1364 37.8493 27.9597 38.4237 29.0893 38.4237C29.9508 38.4237 30.6401 38.0982 31.3868 37.3707L33.3971 39.0364C32.4015 40.3 30.9656 41.1424 28.8978 41.1424ZM26.7918 34.8626H30.3912C30.2572 33.7138 29.5871 32.9863 28.5915 32.9863C27.6342 32.9863 26.9832 33.733 26.7918 34.8626Z" fill="#DEDEDE"/>
<path d="M33.9561 40.8935L37.4406 35.6667L34.0135 30.5356H37.9384L39.4701 33.082L41.0017 30.5356H44.8501L41.4421 35.6476L44.9266 40.8935H41.0209L39.4126 38.2322L37.7852 40.8935H33.9561Z" fill="#DEDEDE"/>
<path d="M50.0392 41.1041C47.8566 41.1041 46.5546 40.1468 46.5546 37.677V33.4649H45.3293V30.5356H46.5546V27.9126H50.1924V30.5356H52.6047V33.4649H50.1924V36.9686C50.1924 37.6962 50.5178 38.0025 51.1879 38.0025C51.6666 38.0025 52.1261 37.8685 52.5664 37.6579V40.5106C51.9155 40.8744 51.0539 41.1041 50.0392 41.1041Z" fill="#DEDEDE"/>
<path d="M54.2448 40.8935V26.917H57.8826V40.8935H54.2448Z" fill="#DEDEDE"/>
<path d="M62.9716 44.0143C61.6888 44.0143 60.5975 43.6505 59.6402 43.1144L60.7698 40.568C61.3442 40.9127 61.9569 41.1233 62.3589 41.1233C62.7227 41.1233 62.9716 41.0275 63.2014 40.7021L59.1424 30.5356H62.9525L65.0202 36.7772L66.9731 30.5356H70.7065L66.9157 40.6446C66.0158 43.057 65.0394 44.0143 62.9716 44.0143Z" fill="#DEDEDE"/>
</svg>
